<svg xmlns="http://www.w3.org/2000/svg" viewBox="0 0 1300 475"><defs><style>.cls-1{fill:#fff;}</style></defs><title>Artboard 1 copy</title><g id="White_Shades" data-name="White Shades"><path class="cls-1" d="M892.59,114h126.49a1.67,1.67,0,0,0,1.67-1.67V71.67a1.67,1.67,0,0,0-1.67-1.67H892.59a1.68,1.68,0,0,0-1.68,1.67v40.66A1.68,1.68,0,0,0,892.59,114Z"/><path class="cls-1" d="M1019.08,270a1.67,1.67,0,0,0,1.67-1.67V227.66a1.66,1.66,0,0,0-1.67-1.66H935.15V192H1005a1.68,1.68,0,0,0,1.68-1.67V149.67A1.68,1.68,0,0,0,1005,148H892.59a1.65,1.65,0,0,0-1.25.56,1.67,1.67,0,0,0-.43,1.11V268.33a1.75,1.75,0,0,0,.13.65,1.68,1.68,0,0,0,1.55,1Z"/><path class="cls-1" d="M1230,169.71c0-54.86-45.19-99.71-100.39-99.71h-72.7a1.66,1.66,0,0,0-1.66,1.67v40.66a1.66,1.66,0,0,0,1.66,1.66h68.81c31.11,0,57,25,56.81,56.07-.17,32.39-23.57,55.93-55.78,55.93h-27.49V149.67a1.66,1.66,0,0,0-1.67-1.67h-40.71a1.67,1.67,0,0,0-1.67,1.67V268.33a1.67,1.67,0,0,0,1.67,1.67h72.73C1184.81,270,1230,225.14,1230,169.71Z"/><path class="cls-1" d="M372.59,70H301.78a1.66,1.66,0,0,0-1.65,1.67v40.66a1.66,1.66,0,0,0,1.65,1.67h73a17,17,0,0,1,0,34l-73,.06a1.66,1.66,0,0,0-1.63,1.68v118.6a1.66,1.66,0,0,0,1.65,1.67h40.16a1.65,1.65,0,0,0,1.65-1.66V193.66a1.66,1.66,0,0,1,1.65-1.66h27.6c34,0,62.13-23,62.13-58.57C435,98.7,406.84,70,372.59,70Z"/><path class="cls-1" d="M542.38,70H471.57a1.65,1.65,0,0,0-1.64,1.67v40.66a1.66,1.66,0,0,0,1.65,1.67h72.94a17,17,0,0,1,0,34l-73,.06a1.66,1.66,0,0,0-1.63,1.68v118.6a1.65,1.65,0,0,0,1.64,1.67h40.17a1.65,1.65,0,0,0,1.64-1.66V193.66A1.66,1.66,0,0,1,515,192h27.61c34,0,62.12-23,62.12-58.57C604.76,98.7,576.64,70,542.38,70Z"/><path class="cls-1" d="M172.59,71a1.69,1.69,0,0,0-1.52-1h-7.38a1.68,1.68,0,0,0-.7.17,1.64,1.64,0,0,0-.81.79L70,269.34a.46.46,0,0,0,.42.66h44.19a1.7,1.7,0,0,0,1.52-1l14.69-31.89,88.25,32.51a1.64,1.64,0,0,0,1,.36H264.3a.47.47,0,0,0,.42-.66Zm-5.24,87,28,60.62-47.88-17.37Z"/><path class="cls-1" d="M535.31,305H515a.83.83,0,0,0-.84.84v60.09A16.85,16.85,0,0,1,497,383.14c-9.71,0-16.81-7.64-16.81-17.21V305.84a.84.84,0,0,0-.84-.84H459.05a.84.84,0,0,0-.84.84V367c0,20.76,17.37,38,38.83,38s39.1-17.21,39.1-38V305.84A.83.83,0,0,0,535.31,305Z"/><path class="cls-1" d="M776.28,270c.63,0,1.14-.74,1.14-1.66V227.87c0-.91-.51-1.66-1.14-1.66H683.59V71.67A1.66,1.66,0,0,0,682,70H641.74a1.65,1.65,0,0,0-1.65,1.66V268.33h0c0,.91.51,1.65,1.14,1.65h135Z"/><path class="cls-1" d="M854.24,70H814a1.65,1.65,0,0,0-1.65,1.66V268.33A1.66,1.66,0,0,0,814,270h40.21a1.65,1.65,0,0,0,1.65-1.66V71.67A1.66,1.66,0,0,0,854.24,70Z"/><path class="cls-1" d="M90.93,305H70.82a.83.83,0,0,0-.82.83v98.34a.83.83,0,0,0,.82.83H90.93a.83.83,0,0,0,.82-.83V305.83A.83.83,0,0,0,90.93,305Z"/><path class="cls-1" d="M646,305H625.89a.83.83,0,0,0-.82.83v98.34a.83.83,0,0,0,.82.83H646a.83.83,0,0,0,.82-.83V305.83A.83.83,0,0,0,646,305Z"/><path class="cls-1" d="M923.53,305h-20.1a.83.83,0,0,0-.83.83v98.34a.83.83,0,0,0,.82.83h20.11a.83.83,0,0,0,.82-.83V305.83A.83.83,0,0,0,923.53,305Z"/><path class="cls-1" d="M392.17,305H324.65c-.32,0-.57.37-.57.83V326c0,.46.25.83.57.83h22.88v77.39a.83.83,0,0,0,.83.83h20.1a.83.83,0,0,0,.83-.83V326.78h22.88c.32,0,.57-.37.57-.83V305.83C392.74,305.37,392.49,305,392.17,305Z"/><path class="cls-1" d="M808.47,305H741c-.32,0-.57.37-.57.83V326c0,.46.25.83.57.83h22.88v77.39a.83.83,0,0,0,.83.83h20.1a.83.83,0,0,0,.83-.83V326.78h22.88c.32,0,.57-.37.57-.83V305.83C809,305.37,808.79,305,808.47,305Z"/><path class="cls-1" d="M257.69,305H237.35a.82.82,0,0,0-.83.84v55.71L202.8,305.44a.86.86,0,0,0-.69-.4.53.53,0,0,0-.18,0H181.59a.82.82,0,0,0-.83.84v98.32a.82.82,0,0,0,.83.84h20.34a.83.83,0,0,0,.84-.84v-56l33.8,56.3s0,0,0,0a.82.82,0,0,0,.75.48h20.34a.83.83,0,0,0,.84-.84V305.84A.83.83,0,0,0,257.69,305Z"/><path class="cls-1" d="M1229.06,305h-20.35a.83.83,0,0,0-.83.84v55.71l-33.71-56.11a.86.86,0,0,0-.69-.4.58.58,0,0,0-.18,0H1153a.83.83,0,0,0-.83.84v98.32a.83.83,0,0,0,.83.84h20.35a.84.84,0,0,0,.84-.84v-56l33.79,56.3s0,0,0,0a.84.84,0,0,0,.75.48h20.35a.84.84,0,0,0,.84-.84V305.84A.84.84,0,0,0,1229.06,305Z"/><path class="cls-1" d="M1052.48,305a50,50,0,0,0-.28,100c27.38.09,50.08-22.24,50.23-49.6A50,50,0,0,0,1052.48,305Zm-.2,75a25,25,0,1,1,25.12-24.8A25.12,25.12,0,0,1,1052.28,380Z"/></g></svg>